<svg width="105" height="105" viewBox="0 0 105 105" fill="none" xmlns="http://www.w3.org/2000/svg">
  <rect width="105" height="105" rx="20" fill="url(#grad)"></rect>
  <path d="M30 35 L30 70 Q30 75 35 75 L45 75 Q50 75 50 70 L50 35 Q50 30 45 30 L35 30 Q30 30 30 35 Z" fill="white"></path>
  <path d="M60 30 L75 30 Q80 30 80 35 L80 70 Q80 75 75 75 L60 75 Q55 75 55 70 L55 35 Q55 30 60 30 Z" fill="white"></path>
  <path d="M65 40 L75 40 L75 65 L65 65 Z" fill="url(#grad2)"></path>
  <defs>
    <linearGradient id="grad" x1="0" y1="0" x2="105" y2="105" gradientUnits="userSpaceOnUse">
      <stop stop-color="#D946EF"></stop>
      <stop offset="1" stop-color="#8B5CF6"></stop>
    </linearGradient>
    <linearGradient id="grad2" x1="65" y1="40" x2="75" y2="65" gradientUnits="userSpaceOnUse">
      <stop stop-color="#C084FC"></stop>
      <stop offset="1" stop-color="#A855F7"></stop>
    </linearGradient>
  </defs>
</svg>
